<svg width="128" height="128" viewBox="0 0 128 128" fill="none" xmlns="http://www.w3.org/2000/svg">
<circle cx="64" cy="64" r="60" stroke="#242424" stroke-width="8"/>
<path fill-rule="evenodd" clip-rule="evenodd" d="M64 104C51.4977 104 40.335 98.2641 33 89.2804V87V42V38.7196C40.335 29.7358 51.4977 24 64 24C86.0914 24 104 41.9086 104 64C104 86.0914 86.0914 104 64 104ZM45 43.4329C49.9918 38.8192 56.6667 36 64 36C79.464 36 92 48.536 92 64C92 79.464 79.464 92 64 92C56.6667 92 49.9918 89.1808 45 84.5672V43.4329Z" fill="#242424"/>
</svg>
